<?xml version="1.0" encoding="UTF-8"?>
<svg xmlns="http://www.w3.org/2000/svg" xmlns:xlink="http://www.w3.org/1999/xlink" viewBox="284.14 188.02 273.26 206.61" preserveAspectRatio="xMidYMid meet" role="img" aria-label="CA India - S. K. Lahoti Associates, Chartered Accountants">
<g id="surface1">
<path style=" stroke:none;fill-rule:evenodd;fill:rgb(7.450867%,34.509277%,52.941895%);fill-opacity:1;" d="M 465.277344 270.925781 L 443.96875 227.585938 L 441.855469 229.8125 L 462.574219 272.007812 Z M 465.277344 270.925781 "/>
<path style=" stroke:none;fill-rule:evenodd;fill:rgb(7.450867%,34.509277%,52.941895%);fill-opacity:1;" d="M 501.378906 344.371094 L 471.855469 284.308594 L 469.113281 285.320312 L 498.683594 345.539062 C 499.988281 347.488281 501.53125 348.664062 503.332031 348.988281 L 503.863281 346.121094 C 502.960938 346.175781 502.140625 345.515625 501.378906 344.371094 "/>
<path style=" stroke:none;fill-rule:nonzero;fill:rgb(7.450867%,34.509277%,52.941895%);fill-opacity:1;" d="M 314.46875 353.511719 L 320.832031 353.511719 L 320.832031 387.5 L 314.46875 387.5 Z M 314.46875 353.511719 "/>
<path style=" stroke:none;fill-rule:nonzero;fill:rgb(7.450867%,34.509277%,52.941895%);fill-opacity:1;" d="M 366.671875 353.460938 L 373.082031 353.460938 L 373.082031 387.5 L 369.097656 387.5 L 369.097656 387.550781 L 351.230469 364.582031 L 351.230469 387.5 L 344.820312 387.5 L 344.820312 353.511719 L 350.015625 353.511719 L 366.671875 374.582031 Z M 366.671875 353.460938 "/>
<path style=" stroke:none;fill-rule:nonzero;fill:rgb(7.450867%,34.509277%,52.941895%);fill-opacity:1;" d="M 402.363281 381.332031 L 409.355469 381.332031 C 417.074219 381.332031 420.136719 375.699219 419.988281 370.164062 C 419.84375 364.871094 416.734375 359.578125 409.355469 359.578125 L 402.363281 359.578125 Z M 426.351562 370.214844 C 426.496094 378.808594 421.253906 387.5 409.355469 387.5 L 396 387.5 L 396 353.511719 L 409.355469 353.511719 C 421.011719 353.511719 426.207031 361.8125 426.351562 370.214844 "/>
<path style=" stroke:none;fill-rule:nonzero;fill:rgb(7.450867%,34.509277%,52.941895%);fill-opacity:1;" d="M 448.105469 353.511719 L 454.46875 353.511719 L 454.46875 387.5 L 448.105469 387.5 Z M 448.105469 353.511719 "/>
<path style=" stroke:none;fill-rule:nonzero;fill:rgb(7.450867%,34.509277%,52.941895%);fill-opacity:1;" d="M 493.21875 360.648438 L 486.90625 375.117188 L 499.53125 375.117188 Z M 502.105469 381.089844 L 484.332031 381.089844 L 481.417969 387.5 L 474.472656 387.5 L 489.722656 353.511719 L 496.714844 353.511719 L 511.964844 387.5 L 504.96875 387.5 Z M 502.105469 381.089844 "/>
<path style=" stroke:none;fill-rule:evenodd;fill:rgb(7.450867%,34.509277%,52.941895%);fill-opacity:1;" d="M 479.628906 265.179688 L 487.941406 264.410156 L 456.746094 200.601562 C 450.914062 193.996094 444.878906 192.726562 438.484375 200.972656 L 379.230469 316.726562 C 376.382812 322.132812 372.457031 325.21875 367.636719 326.382812 C 296.976562 329.082031 278.304688 220.8125 364.148438 210.921875 L 403.523438 211.652344 C 410.921875 211.503906 410.605469 197.351562 403.523438 196.25 L 361.53125 196.035156 C 280.882812 197.074219 254.316406 330.359375 366.265625 343.496094 C 374.476562 343.167969 382.058594 340.410156 387.167969 334.988281 L 441.773438 226.890625 C 444.203125 221.613281 446.757812 221.242188 449.46875 226.789062 L 469.984375 269.039062 Z M 479.628906 265.179688 "/>
<path style=" stroke:none;fill-rule:evenodd;fill:rgb(7.450867%,34.509277%,52.941895%);fill-opacity:1;" d="M 493.730469 276.25 L 476.558594 282.578125 L 505.441406 342.058594 C 512.742188 345.207031 519.527344 345.277344 525.699219 341.636719 Z M 493.730469 276.25 "/>
<path style=" stroke:none;fill-rule:evenodd;fill:rgb(95.68634%,47.450256%,12.548828%);fill-opacity:1;" d="M 408.460938 274.859375 C 448.210938 271.542969 489.320312 258.796875 529.933594 247.890625 C 490.910156 268.027344 463.386719 274.730469 429.4375 284.128906 L 439.523438 303.636719 L 427.414062 309.035156 Z M 408.460938 274.859375 "/>
<path style=" stroke:none;fill-rule:evenodd;fill:rgb(33.332825%,72.549438%,27.842712%);fill-opacity:1;" d="M 441.097656 288.460938 C 486.03125 274.371094 512.894531 266.125 550.335938 251.933594 C 523.703125 267.769531 490.960938 282.734375 459.6875 294.859375 L 469.972656 313.335938 L 459.015625 319.597656 Z M 441.097656 288.460938 "/>
</g>
</svg>
